<?xml version="1.0" encoding="utf-8"?><svg viewBox="0 0 62 62" xmlns="http://www.w3.org/2000/svg" xmlns:xlink="http://www.w3.org/1999/xlink"><style>:root>svg{display:none}:root>svg:target{display:block}</style><svg fill="none" viewBox="0 0 62 62" id="face" xmlns="http://www.w3.org/2000/svg">
    <path fill-rule="evenodd" clip-rule="evenodd" d="M31 0C13.88 0 0 13.88 0 31c0 17.12 13.88 31 31 31 17.12 0 31-13.88 31-31C62 13.88 48.12 0 31 0Zm3.231 32.362v16.865h-6.978V32.362h-3.486V26.55h3.486v-3.49c0-4.74 1.968-7.56 7.561-7.56h4.657v5.813h-2.91c-2.178 0-2.322.812-2.322 2.328l-.008 2.909h5.273l-.617 5.812H34.23Z" fill="#2B2A29"/>
</svg><svg fill="none" viewBox="0 0 62 62" id="insta" xmlns="http://www.w3.org/2000/svg">
    <path fill-rule="evenodd" clip-rule="evenodd" d="M31 0C13.88 0 0 13.88 0 31c0 17.12 13.88 31 31 31 17.12 0 31-13.88 31-31C62 13.88 48.12 0 31 0Zm-6.816 14.567c1.764-.08 2.327-.1 6.817-.1h-.005c4.492 0 5.053.02 6.817.1 1.76.08 2.962.359 4.016.768a8.08 8.08 0 0 1 2.928 1.906 8.114 8.114 0 0 1 1.908 2.93c.407 1.05.686 2.252.768 4.012.08 1.763.1 2.327.1 6.817s-.02 5.053-.1 6.816c-.082 1.76-.361 2.961-.768 4.013a8.116 8.116 0 0 1-1.908 2.928 8.089 8.089 0 0 1-2.927 1.909c-1.052.409-2.255.687-4.015.768-1.763.08-2.325.1-6.816.1-4.49 0-5.053-.02-6.816-.1-1.76-.08-2.962-.36-4.014-.768a8.096 8.096 0 0 1-2.928-1.909 8.1 8.1 0 0 1-1.906-2.928c-.409-1.052-.688-2.253-.769-4.013-.08-1.764-.1-2.326-.1-6.816s.021-5.054.1-6.817c.08-1.76.358-2.962.768-4.013a8.115 8.115 0 0 1 1.909-2.929 8.096 8.096 0 0 1 2.928-1.906c1.052-.41 2.253-.688 4.013-.768Z" fill="#2B2A29"/>
    <path fill-rule="evenodd" clip-rule="evenodd" d="M29.518 17.446h1.483c4.415 0 4.938.016 6.681.095 1.612.074 2.487.343 3.07.57.772.3 1.322.657 1.9 1.236a5.13 5.13 0 0 1 1.237 1.901c.227.583.496 1.457.57 3.07.079 1.742.096 2.266.096 6.678 0 4.413-.017 4.936-.096 6.68-.074 1.611-.343 2.486-.57 3.068-.3.772-.658 1.321-1.237 1.9a5.112 5.112 0 0 1-1.9 1.236c-.582.227-1.458.496-3.07.57-1.742.08-2.266.096-6.68.096-4.415 0-4.938-.017-6.681-.096-1.612-.075-2.487-.344-3.07-.57a5.121 5.121 0 0 1-1.902-1.237 5.123 5.123 0 0 1-1.237-1.9c-.226-.582-.496-1.457-.57-3.07-.079-1.742-.095-2.266-.095-6.68 0-4.416.016-4.937.096-6.68.073-1.612.343-2.486.569-3.07.3-.77.659-1.322 1.237-1.9a5.131 5.131 0 0 1 1.902-1.238c.582-.227 1.458-.496 3.07-.57 1.525-.069 2.116-.09 5.197-.093v.004Zm10.31 2.745a1.984 1.984 0 1 0-.001 3.97 1.984 1.984 0 0 0 0-3.97ZM22.51 31.001A8.49 8.49 0 1 1 39.49 31a8.49 8.49 0 0 1-16.98 0Z" fill="#2B2A29"/>
    <path d="M31.001 25.489a5.511 5.511 0 1 1 0 11.022 5.511 5.511 0 0 1 0-11.022Z" fill="#2B2A29"/>
</svg><svg fill="none" viewBox="0 0 24 24" id="phone-ico" xmlns="http://www.w3.org/2000/svg">
    <path d="m7.18 10.27 6.504 6.46c.697-.807 5.11-5.538 7.316.924 0 0-.232 3.346-4.994 3.346-3.367 0-6.851-4.038-9.29-6.346C4.626 12.692 3 10.154 3 7.846 3 3.116 6.252 3 6.252 3c7.432 2.538.929 7.27.929 7.27H7.18Z" stroke="#fff" stroke-width="1.5" stroke-miterlimit="10" stroke-linejoin="round"/>
</svg><svg fill="none" viewBox="0 0 62 62" id="whats" xmlns="http://www.w3.org/2000/svg">
    <path fill-rule="evenodd" clip-rule="evenodd" d="M0 31c0 17.12 13.88 31 31 31 17.12 0 31-13.88 31-31C62 13.88 48.12 0 31 0 13.88 0 0 13.88 0 31Zm50.455-1.186c-.004 10.16-8.27 18.429-18.433 18.433h-.008a18.417 18.417 0 0 1-8.809-2.244l-9.772 2.564 2.615-9.552a18.4 18.4 0 0 1-2.46-9.216c.004-10.163 8.273-18.432 18.434-18.432a18.314 18.314 0 0 1 13.04 5.406 18.321 18.321 0 0 1 5.393 13.04Z" fill="#2B2A29"/>
    <path fill-rule="evenodd" clip-rule="evenodd" d="m17.86 44.187 5.798-1.52.56.331a15.298 15.298 0 0 0 7.798 2.136h.006c8.444 0 15.318-6.873 15.32-15.321a15.23 15.23 0 0 0-4.482-10.84 15.217 15.217 0 0 0-10.832-4.493c-8.451 0-15.325 6.873-15.328 15.32a15.284 15.284 0 0 0 2.343 8.154l.364.58-1.548 5.653Zm22.818-10.405c.321.156.538.26.63.415.116.192.116 1.114-.268 2.19-.384 1.076-2.224 2.058-3.109 2.19-.793.119-1.798.168-2.901-.182a26.437 26.437 0 0 1-2.626-.97c-4.318-1.865-7.236-6.05-7.787-6.84a5.725 5.725 0 0 0-.081-.115l-.004-.005c-.244-.325-1.877-2.505-1.877-4.76 0-2.121 1.042-3.233 1.522-3.745a10.3 10.3 0 0 0 .09-.097c.422-.461.922-.577 1.229-.577.307 0 .614.003.882.017h.104c.268 0 .602-.003.933.79.127.305.312.758.508 1.235.397.965.835 2.031.912 2.185.115.23.192.5.038.807l-.065.131c-.115.236-.2.409-.395.637a18.3 18.3 0 0 0-.236.284c-.159.193-.317.386-.455.523-.231.23-.471.48-.202.94.268.462 1.193 1.97 2.562 3.191 1.472 1.313 2.751 1.868 3.4 2.15.126.054.229.099.304.136.46.23.73.192.998-.115.269-.307 1.151-1.345 1.458-1.806.307-.46.614-.384 1.037-.23.422.153 2.686 1.267 3.147 1.498l.252.123Z" fill="#2B2A29"/>
</svg><svg fill="none" viewBox="0 0 62 62" id="youtube" xmlns="http://www.w3.org/2000/svg">
    <path fill-rule="evenodd" clip-rule="evenodd" d="M31 0C13.88 0 0 13.88 0 31c0 17.12 13.88 31 31 31 17.12 0 31-13.88 31-31C62 13.88 48.12 0 31 0Zm12.919 20.343c1.423.39 2.543 1.54 2.923 3.002.691 2.647.691 8.172.691 8.172s0 5.524-.69 8.172c-.381 1.46-1.502 2.611-2.924 3.002-2.579.709-12.92.709-12.92.709s-10.34 0-12.918-.71c-1.423-.39-2.543-1.54-2.924-3.001-.69-2.648-.69-8.172-.69-8.172s0-5.525.69-8.172c.38-1.461 1.501-2.612 2.924-3.002 2.579-.71 12.919-.71 12.919-.71s10.34 0 12.919.71Z" fill="#2B2A29"/>
    <path d="M27.9 37.2V26.867l8.267 5.166L27.9 37.2Z" fill="#2B2A29"/>
</svg></svg>